<?xml version="1.0" encoding="UTF-8" standalone="no"?><!DOCTYPE svg PUBLIC "-//W3C//DTD SVG 1.1//EN" "http://www.w3.org/Graphics/SVG/1.1/DTD/svg11.dtd">
<svg width="100%" height="100%" viewBox="0 0 1080 1080" version="1.1"
    xmlns="http://www.w3.org/2000/svg"
    xmlns:xlink="http://www.w3.org/1999/xlink" xml:space="preserve"
    xmlns:serif="http://www.serif.com/" style="fill-rule:evenodd;clip-rule:evenodd;stroke-linecap:round;stroke-linejoin:round;stroke-miterlimit:1.5;">
    <g transform="matrix(5.48632,0,0,5.13498,-495.997,-472.601)">
        <ellipse cx="188.833" cy="197.197" rx="98.427" ry="105.161" style="fill:#fd0;fill-opacity:0;"/>
    </g>
    <g transform="matrix(0.493992,0,0,1.18163,221.756,-196.862)">
        <path d="M645.632,243.569C689.493,243.569 775.81,342.428 775.81,415.05C775.81,487.671 644.229,546.631 644.229,546.631C644.229,546.631 512.648,487.671 512.648,415.05C512.648,342.428 601.772,243.569 645.632,243.569Z" style="fill:#4da6ff;"/>
    </g>
    <g transform="matrix(1,0,0,1,-74.5545,32.1319)">
        <path d="M462.916,466.646C420.919,442.809 245.756,408.626 230.837,420.23C215.917,431.834 276.664,605.099 409.041,597.606C452.97,595.119 473.181,580.805 491.926,580.2C499.635,579.951 540.023,578.156 537.513,571.082C519.279,519.693 497.756,486.421 462.916,466.646Z" style="fill:#4da6ff;"/>
    </g>
    <g transform="matrix(-1,0,0,1,1154.55,32.1319)">
        <path d="M462.916,466.646C420.919,442.809 245.756,408.626 230.837,420.23C215.917,431.834 276.664,605.099 409.041,597.606C452.97,595.119 473.181,580.805 491.926,580.2C499.635,579.951 540.023,578.156 537.513,571.082C519.279,519.693 497.756,486.421 462.916,466.646Z" style="fill:#4da6ff;"/>
    </g>
    <g transform="matrix(1,0,0,1,2.48067,20.9764)">
        <g transform="matrix(1,0,0,1,19.8926,-8.28856)">
            <path d="M518.45,931.635C577.672,772.559 602.993,767.521 602.993,767.521L681.734,870.299C753.961,797.232 816.176,741.785 815.18,704.528" style="fill:none;stroke:#4da6ff;stroke-width:8px;"/>
        </g>
        <g transform="matrix(-1,0,0,1,1055.15,-8.28856)">
            <path d="M518.45,931.635C577.672,772.559 602.993,767.521 602.993,767.521L681.734,870.299C753.961,797.232 816.176,741.785 815.18,704.528" style="fill:none;stroke:#4da6ff;stroke-width:8px;"/>
        </g>
    </g>
    <g transform="matrix(1,0,0,1,-31.6002,36.9996)">
        <path d="M571.6,626.086L610.453,649.915L532.748,649.915L571.6,626.086Z" style="fill:#4da6ff;"/>
    </g>
</svg>